<?xml version="1.0" encoding="UTF-8"?>
<svg id="Capa_1" data-name="Capa 1" xmlns="http://www.w3.org/2000/svg" viewBox="0 0 568.79 168.95">
  <defs>
    <style>
      .cls-1 {
        fill: #fff;
      }
    </style>
  </defs>
  <path class="cls-1" d="M157.29,4.51L0,168.95l49.71-13.96,29.96-36.43,32-7.49-12.94,29.62,33.36-9.87L185.89,4.51h-28.6ZM125.63,84.17l-19.41,5.11,34.39-39.83-14.98,34.73h0Z"/>
  <g>
    <path class="cls-1" d="M301.62,3.52l71.28-.69-6.88,23.48h-45.09l-4.97,21.86h39.13l-5.94,22.8h-41.29l-7.15,24.02,45.07.13-6.07,22.62h-70.76L301.62,3.52Z"/>
    <path class="cls-1" d="M519.28,0c34.56,0,54.28,26.98,48.51,58.21-5.77,31.23-39.88,63.03-74.74,63.03s-53.78-28.04-48.46-56.85c1.37-7.43,3.97-15.77,8.82-23.95,8.6-14.55,34.49-40.44,65.87-40.44h0ZM498.31,96.08c20.31,0,38.14-23.31,40.8-37.71,2.69-14.55-3.72-33.2-24.33-33.2s-38.32,21.8-41.23,37.56c-3.19,17.28,5.51,33.35,24.76,33.35h0Z"/>
    <path class="cls-1" d="M246.43,1.93c-36.68,0-69.4,32.62-75.53,61.1-7.06,32.77,9.26,58.36,44.43,58.36,18.56,0,37.35-9.54,51.02-24.06l-10.22-20.02c-2.59,3.98-16.61,17.92-34.46,17.92s-25.23-15.37-22.09-32.35c2.94-15.92,22.8-35.78,42.05-35.78,9.61,0,16.23,3.84,20.26,8.75l19.3-20.66c-6.31-7.73-17.07-13.25-34.76-13.25h0Z"/>
  </g>
  <path class="cls-1" d="M431.92,2.84h-49.4l-31.55,113.85h24.17l14.25-47.96h.3l14.95,47.96h32.74l-19.5-48.93s32.71-11.96,33.62-40.33c0,0,.8-23.15-19.58-24.58h0ZM425.08,34.14c-.56,11.18-13.41,13.51-13.41,13.51h-15.56l6.36-22.48h13.98c9.91-.21,8.63,8.97,8.63,8.97Z"/>
</svg>